# xmcd
#
# Track frame offsets: 
#        182
#        15982
#        31692
#        47357
#
# Disc length: 763 seconds
#
# Revision: 0
# Processed by: cddbd v1.5.2PL0 Copyright (c) Steve Scherf et al.
# Submitted via: ExactAudioCopyFreeDBPlugin 1.0
#
DISCID=1a02f904
DTITLE=Rah Digga - Tught
DYEAR=1999
DGENRE=Hip-Hop
TTITLE0=Tight (Clean Version)
TTITLE1=Tight (LP Version)
TTITLE2=Tight (Instrumental)
TTITLE3=Audio Bio
EXTD=
EXTT0=
EXTT1=
EXTT2=
EXTT3=
PLAYORDER=
